<?xml version="1.0" encoding="utf-8"?>
<!-- Generator: Adobe Illustrator 16.0.3, SVG Export Plug-In . SVG Version: 6.00 Build 0)  -->
<!DOCTYPE svg PUBLIC "-//W3C//DTD SVG 1.1//EN" "http://www.w3.org/Graphics/SVG/1.1/DTD/svg11.dtd">
<svg version="1.1" id="Calque_1" xmlns="http://www.w3.org/2000/svg" xmlns:xlink="http://www.w3.org/1999/xlink" x="0px" y="0px"
	 width="85.548px" height="13.28px" viewBox="0 0 85.548 13.28" enable-background="new 0 0 85.548 13.28" xml:space="preserve">
<g>
	<defs>
		<rect id="SVGID_1_" width="85.548" height="13.28"/>
	</defs>
	<clipPath id="SVGID_2_">
		<use xlink:href="#SVGID_1_"  overflow="visible"/>
	</clipPath>
	<path clip-path="url(#SVGID_2_)" fill="#FF0F00" d="M9.726,3.634C9.683,3.65,9.528,3.695,9.541,3.701
		C9.528,3.695,9.518,3.693,9.519,3.683c0.017-0.057-0.255,0.189-0.268,0.094C9.243,3.76,9.264,3.78,9.225,3.771
		c0.1,0.014-0.608,0.231-0.608,0.219C8.583,3.918,8.59,3.847,8.636,3.782c0.055-0.136-0.122-0.33-0.055-0.273
		C8.533,3.462,8.533,3.417,8.579,3.371C8.61,3.392,8.581,3.363,8.597,3.303c0.02-0.012-0.037-0.087,0.015-0.061
		C8.656,3.23,8.73,2.987,8.677,2.814C8.56,2.552,8.61,0.66,8.669,0.732C8.69,0.602,8.565,0.505,8.625,0.408
		c0.004-0.099-0.094-0.103-0.081-0.17C8.492,0.04,8.202,0.042,8.234,0C8.081,0.033,7.516,0.915,7.511,0.937
		c0.035-0.032-0.382,0.575-0.374,0.577c-0.046-0.01-0.098,0.069-0.107,0.16C7.025,1.685,6.793,1.962,6.818,1.908
		c-0.08,0.129-0.174,0.253-0.247,0.385C6.628,2.258,6.468,2.4,6.492,2.396c0.004-0.015-0.18,0.428-0.182,0.39
		c0.018-0.06-0.225,0.218-0.251,0.22C6.008,3.208,5.237,2.713,5.222,2.487c0.003-0.008-0.015-0.209-0.119-0.233
		C5.148,2.293,4.554,1.769,4.599,1.81c-0.31-0.401-0.555-0.39-1.014-0.779C3.588,1.024,3.478,0.776,3.4,0.689
		C3.227,0.73,2.992,0.991,3.042,1.056c-0.075,0.03-0.089-0.061-0.118-0.091C2.901,1.063,3,1.632,3,1.632
		C2.989,1.714,3.04,2.136,3.059,2.073L3.093,2.11c0,0.004-0.053,0.063,0.012,0.104c0.07,0.121,0.213,0.206,0.162,0.374
		C3.205,2.62,3.275,2.839,3.264,2.769c-0.07,0.348,0.774,1.004,0.657,1.469C3.867,4.279,4.082,4.526,4.038,4.516
		C3.964,4.598,3.747,4.651,3.594,4.69C3.55,4.715,3.504,4.693,3.456,4.679C3.41,4.67,3.027,4.52,2.919,4.589
		C2.915,4.601,2.602,4.52,2.6,4.532C2.656,4.47,2.242,4.617,2.304,4.487C2.331,4.385,1.943,4.594,2.039,4.54
		C2.032,4.543,1.87,4.631,1.874,4.605C1.887,4.57,1.726,4.602,1.763,4.61C1.738,4.604,1.574,4.558,1.598,4.573
		C1.507,4.516,1.487,4.594,1.38,4.543C1.373,4.555,1.251,4.572,1.228,4.566C1.22,4.564,0.985,4.574,0.985,4.567
		C1.004,4.56,0.779,4.631,0.764,4.574c0.008-0.01-0.178,0.126-0.23,0.042c0.023-0.07-0.209,0.057-0.246,0.062
		C0.26,4.673,0.142,4.624,0.165,4.659C0.146,4.669,0,4.842,0,4.842c0.027,0.008,0.799,0.57,0.678,0.482c0,0,0.083,0.067,0.286,0.184
		C0.932,5.592,1.262,5.512,1.208,5.694c0.308-0.176,0.937,0.645,1.158,0.515c0.028,0,0.122,0.143,0.153,0.132
		c-0.05-0.042,0.159,0.067,0.094,0.063c0.029,0.033,0.018,0.021,0.118,0.121c0.252-0.01,0.359,0.191,0.442,0.259
		C3.449,7.3,2.303,7.798,2.204,8.059C2.2,8.072,2.2,8.083,2.185,8.079C2.198,8.09,2.024,8.151,2.004,8.232L1.832,8.45
		C1.679,8.408,1.291,9.005,1.134,9.083L0.76,9.25c0,0-0.053,0.049-0.088,0.1C0.638,9.403,0.586,9.462,0.549,9.475
		C0.516,9.488,0.284,9.71,0.284,9.71L0.226,9.815l0.094,0.04c0,0-0.06,0.069-0.069,0.1c-0.013,0.024-0.047,0.099,0.026,0.115
		c0.075,0.017,0.117,0.017,0.135,0.051c0.016,0.035,0.317,0.058,0.341,0.053c0.023-0.008,0.173-0.072,0.173-0.072
		c0.144-0.044,0.617-0.038,0.672,0.009c-0.01-0.003,0.687-0.166,0.706-0.222C2.327,9.892,2.733,9.75,2.733,9.75
		c0.112-0.05,0.366-0.09,0.447-0.18C3.103,9.585,3.508,9.45,3.622,9.503c0.036,0.019,1.013-0.177,1.046-0.299
		C4.747,9.212,4.756,9.284,4.76,9.288C4.738,9.413,4.758,9.76,4.709,9.822c0.002-0.051-0.137,0.09-0.09,0.165
		c0.099,0.028,0.094-0.006,0.155,0.134c-0.029-0.063,0.007,0.282-0.002,0.404c0.004,0.067,0.113,0.286-0.068,0.373
		c0,0-0.102,0.206-0.107,0.203C4.611,11,4.611,11.154,4.591,11.125c0.092-0.042,0.064,0.229,0.044,0.262
		c0.017-0.042-0.048,0.052-0.055,0.021c-0.147,0.28,0.163,0.312-0.016,0.344c0.077,0.021,0.117,0.395,0.112,0.34
		c0.017,0.126,0.007,0.247-0.033,0.366c-0.026-0.078-0.069,0.143-0.056,0.203c0.03,0.14-0.042,0.404,0.096,0.466
		c-0.021-0.055,0.104,0.128,0.104,0.128c0.322,0.132,0.401-0.277,0.544-0.341c0.049-0.01,0.105-0.199,0.151-0.185
		c0.005-0.015,0.198-0.913,0.347-0.865c-0.007,0,0.25-0.369,0.302-0.527c-0.002,0.011-0.123-0.129,0.134-0.237
		c0.125,0.04,0.183-0.283,0.215-0.467c0.008-0.106,0.085-0.054,0.096-0.167c-0.002,0.031,0.221-0.331,0.258-0.479
		C6.87,9.988,6.876,9.822,6.902,9.843c-0.07-0.058,0.06-0.127,0.043-0.178c0.024-0.089,0.016-0.169,0.056-0.162
		c0.038-0.173,0.151-0.098,0.176-0.082C7.23,9.45,7.304,9.406,7.312,9.535C7.261,9.599,7.479,9.661,7.46,9.701
		c-0.006-0.031,1.043,1.168,1.332,1.397c0.014,0.013,0.826,0.794,0.79,0.786c0.09,0.045,0.166,0.203,0.172,0.192
		c-0.034,0.05,0.155,0.134,0.188,0.134c0.123,0.208,0.129,0.165,0.195,0.13c0.021,0.093,0.185,0.048,0.244,0.078
		c-0.018-0.045,0.129-0.084,0.097-0.134c0.044,0.015-0.03-0.169,0.011-0.147c-0.053-0.088-0.36-0.484-0.339-0.557
		c0.007-0.025,0.044-0.017,0.067-0.011c-0.004-0.023-0.039-0.049-0.06-0.064c0.056-0.002,0.068-0.03,0.037-0.088
		c-0.055,0.029-0.131-0.311-0.083-0.358c0.02-0.086-0.251-1.147-0.379-1.252C9.741,9.77,9.688,9.537,9.678,9.516
		c-0.212-0.128-0.037-0.385-0.183-0.43C9.461,9.15,9.308,8.909,9.287,8.708c-0.071-0.126,0-0.426-0.048-0.381
		C9.197,8.282,9.458,8.173,9.523,8.311c0.552,0.203,1.607-0.134,1.988,0.153c0.09-0.165,0.293-0.037,0.184-0.067
		c-0.017,0.021,0.019,0.029,0.044,0.036c-0.05-0.01,0.371-0.036,0.435-0.004c-0.162-0.038,0.239-0.013,0.223-0.019
		c-0.142-0.03,0.285,0.05,0.74-0.224c0.164-0.049,0.133-0.131,0.202-0.283c-0.028,0.129,0.042-0.129-0.096-0.211
		c-0.806-0.196-1.448-0.773-2.251-0.977C10.681,6.65,10.178,5.912,9.91,5.958c0.487-0.538,0.958-1.074,1.46-1.532
		c0.098-0.092,1.103-1.143,1.103-1.131c0.038-0.053,0.094-0.228,0.09-0.152c0.002-0.025-0.01-0.059-0.037-0.097
		c-0.002,0.013-0.378-0.272-0.476-0.094c0.132,0.08-0.269,0.107-0.367,0.129c-0.03,0.018-0.055,0.011-0.078,0.005
		c-0.1-0.024-0.231,0.087-0.299,0.102c-0.147-0.127-0.515,0.109-0.682,0.163c0.014-0.007-0.072,0.01-0.202-0.017
		c-0.056,0.089-0.054,0.064-0.041,0.056c-0.048,0.025-0.089,0.066-0.286,0.131c0.023,0.008-0.124,0.068-0.18,0.053
		C9.92,3.6,9.893,3.667,9.806,3.65C9.741,3.634,9.75,3.61,9.726,3.634"/>
</g>
<path fill="#FF0F00" d="M16.698,3.939h2.333v6.911h-2.333V3.939z M17.042,3.193h-1.758l1.537-1.981h2.086l1.538,1.981h-1.757
	l-0.823-1.066L17.042,3.193z"/>
<rect x="20.167" y="1.343" fill="#FF0F00" width="2.334" height="9.507"/>
<g>
	<defs>
		<rect id="SVGID_3_" width="85.548" height="13.28"/>
	</defs>
	<clipPath id="SVGID_4_">
		<use xlink:href="#SVGID_3_"  overflow="visible"/>
	</clipPath>
	<path clip-path="url(#SVGID_4_)" fill="#FF0F00" d="M28.349,6.685c-0.041-0.777-0.605-1.415-1.387-1.415
		c-0.822,0-1.372,0.572-1.51,1.415H28.349z M25.452,7.947c0.041,0.945,0.605,1.571,1.594,1.571c0.56,0,1.111-0.254,1.33-0.761h2.185
		c-0.426,1.599-1.952,2.291-3.544,2.291c-2.319,0-3.898-1.358-3.898-3.674c0-2.116,1.743-3.635,3.843-3.635
		c2.554,0,3.831,1.865,3.722,4.208H25.452z"/>
	<path clip-path="url(#SVGID_4_)" fill="#FF0F00" d="M33.75,10.187c1.235,0,1.711-1.028,1.711-2.045
		c0-1.073-0.499-2.057-1.763-2.057c-1.255,0-1.679,1.038-1.679,2.099C32.019,9.201,32.561,10.187,33.75,10.187 M36.35,10.85h-0.921
		v-0.734h-0.022c-0.302,0.599-1.018,0.859-1.785,0.859c-1.722,0-2.576-1.323-2.576-2.854c0-1.533,0.844-2.825,2.555-2.825
		c0.573,0,1.395,0.209,1.806,0.85h0.022V3.355h0.921V10.85z"/>
	<path clip-path="url(#SVGID_4_)" fill="#FF0F00" d="M41.11,7.616c-0.043-0.851-0.702-1.532-1.612-1.532
		c-0.964,0-1.537,0.703-1.602,1.532H41.11z M41.999,9.128c-0.25,1.196-1.136,1.847-2.393,1.847c-1.785,0-2.631-1.197-2.684-2.855
		c0-1.628,1.104-2.824,2.631-2.824c1.98,0,2.586,1.796,2.532,3.109h-4.189c-0.032,0.945,0.522,1.781,1.742,1.781
		c0.758,0,1.288-0.357,1.451-1.059H41.999z"/>
</g>
<polygon fill="#FF0F00" points="42.683,1.343 49.901,1.343 49.901,3.327 45.233,3.327 45.233,5.271 49.271,5.271 49.271,7.187 
	45.233,7.187 45.233,10.85 42.683,10.85 "/>
<g>
	<defs>
		<rect id="SVGID_5_" width="85.548" height="13.28"/>
	</defs>
	<clipPath id="SVGID_6_">
		<use xlink:href="#SVGID_5_"  overflow="visible"/>
	</clipPath>
	<path clip-path="url(#SVGID_6_)" fill="#FF0F00" d="M50.369,3.939h2.266v1.212h0.025c0.345-0.878,1.139-1.347,2.143-1.347
		c0.178,0,0.37,0.017,0.549,0.057v2.062c-0.302-0.081-0.575-0.134-0.892-0.134c-1.153,0-1.761,0.773-1.761,1.64v3.421h-2.33V3.939z"
		/>
	<path clip-path="url(#SVGID_6_)" fill="#FF0F00" d="M58.372,9.65c1.11,0,1.481-0.61,1.427-2.036
		c-0.329,0.198-0.933,0.24-1.44,0.372c-0.521,0.118-0.961,0.333-0.961,0.88C57.397,9.424,57.849,9.65,58.372,9.65 M55.352,6.068
		c0.041-0.903,0.481-1.49,1.11-1.85c0.632-0.345,1.455-0.479,2.267-0.479c1.688,0,3.322,0.36,3.322,2.317v3.022
		c0,0.586,0,1.224,0.276,1.771h-2.35c-0.081-0.214-0.109-0.426-0.137-0.651c-0.604,0.61-1.496,0.85-2.349,0.85
		c-1.358,0-2.428-0.664-2.428-2.09c0-2.249,2.524-2.076,4.145-2.396c0.399-0.08,0.618-0.213,0.618-0.64
		c0-0.518-0.645-0.718-1.126-0.718c-0.646,0-1.057,0.281-1.167,0.864H55.352z"/>
	<path clip-path="url(#SVGID_6_)" fill="#FF0F00" d="M62.901,3.939h2.267v0.946h0.027c0.425-0.706,1.385-1.146,2.237-1.146
		c2.375,0,2.566,1.678,2.566,2.678v4.433h-2.331V7.508c0-0.946,0.108-1.904-1.169-1.904c-0.879,0-1.263,0.718-1.263,1.477v3.769
		h-2.335V3.939z"/>
	<path clip-path="url(#SVGID_6_)" fill="#FF0F00" d="M75.506,6.47c-0.014-0.586-0.55-0.999-1.139-0.999
		c-1.306,0-1.512,1.077-1.512,2.037c0,0.892,0.398,1.811,1.388,1.811c0.809,0,1.224-0.452,1.33-1.184h2.267
		c-0.206,1.85-1.688,2.913-3.584,2.913c-2.14,0-3.735-1.425-3.735-3.54c0-2.197,1.442-3.769,3.735-3.769
		c1.771,0,3.351,0.906,3.516,2.731H75.506z"/>
	<path clip-path="url(#SVGID_6_)" fill="#FF0F00" d="M83.207,6.685c-0.041-0.777-0.604-1.415-1.388-1.415
		c-0.823,0-1.37,0.572-1.508,1.415H83.207z M80.312,7.947c0.041,0.945,0.603,1.571,1.592,1.571c0.563,0,1.112-0.254,1.331-0.761
		h2.185c-0.427,1.599-1.951,2.291-3.543,2.291c-2.32,0-3.899-1.358-3.899-3.674c0-2.116,1.745-3.635,3.843-3.635
		c2.555,0,3.832,1.865,3.722,4.208H80.312z"/>
</g>
</svg>
